#N canvas 791 232 243 317 10;
#X obj 2 282 del;
#X obj 90 213 / 100;
#X obj 60 170 t b b;
#X obj 2 3 loadbang;
#X obj 68 3 inlet rate;
#X obj 148 170 inlet fspread;
#X obj 113 233 inlet fbase;
#X obj 90 254 + \$3;
#X obj 90 193 random \$2;
#X obj 90 297 outlet~;
#X obj 2 113 random;
#X obj 39 70 f \$1;
#X obj 2 28 t b b;
#X obj 2 234 exp;
#X obj 2 171 / 15;
#X obj 2 141 + 7;
#X obj 2 256 + 40;
#X obj 2 199 + 2.718;
#X obj 39 92 clip 30 90;
#X obj 90 276 cpulse;
#X connect 0 0 2 0;
#X connect 1 0 7 0;
#X connect 2 0 10 0;
#X connect 2 1 8 0;
#X connect 3 0 12 0;
#X connect 4 0 11 0;
#X connect 5 0 8 1;
#X connect 6 0 7 1;
#X connect 7 0 19 0;
#X connect 8 0 1 0;
#X connect 10 0 15 0;
#X connect 11 0 18 0;
#X connect 12 0 10 0;
#X connect 12 1 11 0;
#X connect 13 0 16 0;
#X connect 14 0 17 0;
#X connect 15 0 14 0;
#X connect 16 0 0 0;
#X connect 17 0 13 0;
#X connect 18 0 10 1;
#X connect 19 0 9 0;
