#N canvas 1080 462 117 214 10;
#X obj 2 63 vline~;
#X msg 2 43 1 \, 0 \$1 0;
#X obj 2 189 outlet~;
#X obj 2 -3 inlet;
#X obj 2 83 -~ 0.5;
#X obj 2 106 *~;
#X obj 2 126 *~ -4;
#X obj 2 147 +~ 1;
#X obj 53 146 sqrt;
#X obj 2 169 *~;
#X obj 2 17 t f f;
#X obj 53 83 + 0.1;
#X connect 0 0 4 0;
#X connect 1 0 0 0;
#X connect 3 0 10 0;
#X connect 4 0 5 0;
#X connect 4 0 5 1;
#X connect 5 0 6 0;
#X connect 6 0 7 0;
#X connect 7 0 9 0;
#X connect 8 0 9 1;
#X connect 9 0 2 0;
#X connect 10 0 1 0;
#X connect 10 1 11 0;
#X connect 11 0 8 0;
